# xmcd CD database file
#
# Track frame offsets:
#	180
#	24801
#	50621
#	74457
#
# Disc length: 1583 seconds
#
# Revision: 1
# Processed by: cddbd v1.5.1PL2 Copyright (c) Steve Scherf et al.
# Submitted via: CDex 1.51
#
DISCID=2d062d04
DTITLE=b.l.o.w. - Shroomin' At Moles
DYEAR=1995
DGENRE=Rock
TTITLE0=Shroomin'
TTITLE1=Yer Blues
TTITLE2=Dred Indian Blues
TTITLE3=On My Miserable Way
EXTD=YEAR: 1995
EXTT0=
EXTT1=
EXTT2=
EXTT3=
PLAYORDER=
